<?xml version="1.0" encoding="UTF-8" standalone="no"?>
<!-- Created with Inkscape (http://www.inkscape.org/) -->

<svg
   width="546.94519mm"
   height="283.94366mm"
   viewBox="0 0 546.9452 283.94366"
   version="1.1"
   id="svg1"
   xml:space="preserve"
   inkscape:export-filename="isotipo_y_logotipo.png"
   inkscape:export-xdpi="300"
   inkscape:export-ydpi="300"
   inkscape:version="1.4.4 (dcaf3e7d9e, 2026-05-05)"
   sodipodi:docname="isotipo_y_logotipo.svg"
   xmlns:inkscape="http://www.inkscape.org/namespaces/inkscape"
   xmlns:sodipodi="http://sodipodi.sourceforge.net/DTD/sodipodi-0.dtd"
   xmlns="http://www.w3.org/2000/svg"
   xmlns:svg="http://www.w3.org/2000/svg"><sodipodi:namedview
     id="namedview1"
     pagecolor="#ffffff"
     bordercolor="#000000"
     borderopacity="0.25"
     inkscape:showpageshadow="2"
     inkscape:pageopacity="0.0"
     inkscape:pagecheckerboard="0"
     inkscape:deskcolor="#d1d1d1"
     inkscape:document-units="mm"
     inkscape:lockguides="false"
     inkscape:zoom="0.3160016"
     inkscape:cx="1009.4886"
     inkscape:cy="568.03509"
     inkscape:window-width="1352"
     inkscape:window-height="721"
     inkscape:window-x="0"
     inkscape:window-y="0"
     inkscape:window-maximized="1"
     inkscape:current-layer="layer2" /><defs
     id="defs1"><rect
       x="1185.6562"
       y="451.67853"
       width="647.80212"
       height="166.40788"
       id="rect2" /><rect
       x="1063.3571"
       y="4.7898965"
       width="637.04333"
       height="221.9147"
       id="rect1" /><rect
       x="1063.3571"
       y="4.7898965"
       width="660.81592"
       height="135.7392"
       id="rect1-6" /></defs><g
     id="layer2"
     inkscape:label="Capa 2"
     style="display:inline;opacity:0.8"
     transform="translate(-23.017517,-22.056826)"><circle
       style="display:inline;opacity:0.15;fill:#e6ffba;fill-opacity:1;stroke-width:0.271422"
       id="path5663"
       cy="163.26701"
       cx="161.76752"
       r="138.75" /><path
       style="display:inline;opacity:1;fill:#9fc55a;fill-opacity:1;stroke-width:0.264583"
       d="m 211.78946,290.27506 c -3.12145,-24.69127 -46.02451,-32.15744 -59.19883,-24.64083 6.4127,14.69903 28.25079,25.30158 45.11617,27.76209 z"
       id="path5670"
       sodipodi:nodetypes="cccc" /><path
       style="display:inline;opacity:1;fill:#2a6f3a;fill-opacity:1;stroke-width:0.264583"
       d="m 230.79367,250.66676 c 9.45742,-2.16887 18.60871,-6.79132 17.39905,-25.58754 -16.21678,4.08976 -18.93715,13.62345 -18.8076,24.30668 z"
       id="path5672"
       sodipodi:nodetypes="cccc" /><ellipse
       style="display:inline;opacity:1;fill:#c1e87d;fill-opacity:1;stroke-width:0.310967"
       id="path5659"
       cx="147.95917"
       cy="61.681961"
       rx="18.051529"
       ry="18.126122"
       transform="translate(60.854169,17.19792)" /><path
       style="display:inline;opacity:1;fill:#10401b;fill-opacity:1;stroke-width:0.264583"
       d="m 219.80933,286.76205 21.1578,-10.83368 c 1.60381,-0.82122 3.32331,0.59166 1.55688,2.71787 -5.02762,4.35938 -8.57867,5.97491 -13.01826,8.93775 C 104.47434,359.46931 -27.646023,202.21881 60.673925,136.51631 41.041574,132.96702 38.573015,113.86042 39.756992,109.04222 c 0.300436,-1.22263 0.837751,-2.07483 2.240874,-0.9776 3.678492,1.6123 4.470039,3.24512 7.999078,4.79893 7.496095,3.30048 14.913172,7.45523 18.186993,10.7431 -0.166669,-4.18337 -12.769454,-16.13931 -20.1332,-24.820842 -12.17936,-15.019554 -20.107439,-33.95277 -10.247988,-52.350166 1.071072,-1.698737 4.025846,-1.453001 3.774109,1.736709 -4.522041,12.810939 -0.540769,24.202209 5.183167,34.542587 -2.204161,-27.75405 12.836359,-52.102275 26.377539,-60.615009 3.282531,-0.327203 3.193896,1.258959 2.750321,3.046574 -16.549575,20.058732 -16.708698,26.240618 -19.161083,35.335911 2.901559,-2.596522 5.859631,-5.004672 9.016821,-6.74909 3.766332,0.201948 2.797445,1.889456 2.347168,3.414262 C 50.224648,71.038556 54.906401,88.581333 64.830629,102.92792 64.529,93.183287 67.865347,79.019799 70.843254,73.989484 98.619829,26.265246 150.50317,21.889813 179.89623,25.668852 c 1.26132,0.871552 0.68273,2.212834 -0.80561,2.330877 -39.95996,-1.795835 -106.046418,19.807573 -103.920622,76.075681 2.692536,7.9271 8.228797,9.15769 16.673394,3.53961 13.563668,-10.933369 10.982278,-17.917701 12.668058,-26.993109 0.77384,-4.350681 2.66678,-2.938654 4.72695,-0.511755 2.96152,19.664662 -4.88838,25.102064 -10.967835,32.534824 28.813485,-3.96427 28.920855,-11.32929 34.209795,-19.361711 0.96217,-4.500988 5.17048,-4.408303 4.49465,-0.09538 -1.52999,18.414541 -18.86152,23.764421 -33.37697,27.322941 -8.369788,2.05189 -13.873196,0.0479 -17.343495,0.48769 9.741395,4.31843 16.571445,10.16915 20.212995,17.69802 3.54505,5.17034 10.28033,8.90507 16.95284,12.66805 2.40177,0.91478 3.42729,2.90662 2.14239,6.70662 -0.5085,0 -1.6838,3.66005 -6.48292,7.44165 -3.88834,3.06392 -6.02533,1.4303 -8.46947,1.29266 -23.543669,-6.6247 -34.867932,7.21523 -36.902354,9.14919 -8.553008,8.13063 -13.047597,26.01051 -12.137558,25.43007 0.609565,-0.68376 6.037931,-21.4156 26.081289,-28.87571 -2.085065,6.97316 -5.243929,15.21491 -0.678834,26.11934 2.974225,7.10439 9.295046,16.87246 23.686257,25.48435 10.58059,6.61466 21.25414,15.52997 32.41531,36.5138 15.50862,27.28528 36.27808,31.88767 49.49438,32.21944 6.30298,-0.56775 13.54399,-0.4608 19.84697,-3.18724 4.70882,-11.9864 0.24951,-15.96887 -2.80506,-21.1425 -7.83491,-1.45652 -15.88795,-1.51009 -21.15205,-19.24846 9.83472,0.69723 20.3886,-0.52185 22.96023,17.47866 2.59779,3.04956 4.84852,7.43886 5.70776,12.52933 2.25066,-7.73124 3.86271,-15.89282 1.54635,-23.62406 1.28436,0.60491 2.62447,-1.25514 2.80324,-0.3452 0.42581,2.16735 0.8828,4.81025 1.04916,7.01741 4.06719,-9.49635 8.11658,-15.53817 11.584,-19.5924 4.37076,-5.11047 5.10311,-5.52813 5.72791,-6.09374 -0.21402,0.64332 -2.236,3.27071 -3.20874,4.88553 -1.66715,2.76761 -5.31705,8.30257 -8.43559,14.14174 -4.38359,8.20785 -6.52404,17.17704 -6.35297,18.35434 1.88233,-1.89197 1.46119,-2.68899 7.48895,-6.74379 6.02689,-14.53604 24.24681,-10.29506 26.82149,-6.37816 -2.94232,3.15923 -7.64845,8.09328 -12.55064,9.80646 -4.56655,1.59588 -9.27435,0.50092 -13.46967,-0.41043 -5.05708,3.13093 -9.04819,7.56146 -10.32088,16.46856 z"
       id="path5664"
       sodipodi:nodetypes="cscccscsccsccccccccccccccccccsccccscsccscccccccccscscsscccscc" /><path
       style="display:inline;opacity:1;fill:#c1e87d;fill-opacity:1;stroke-width:0.264583"
       d="m 259.53855,173.48462 c 3.05971,2.98223 5.73073,4.73914 8.06623,6.98191 1.79704,1.72568 3.52908,4.18537 3.79846,5.09036 l 27.32862,0.004 c 0.0472,-0.29439 0.0943,-0.55666 0.14143,-0.88595 -1.16026,-1.67854 -8.27799,-4.46214 -13.35666,-9.25624 -5.025,-4.74344 -7.1144,-10.62707 -12.55731,-11.30945 -3.38496,0.38869 -7.14711,3.86553 -9.42977,6.0789 -1.72382,1.67149 -2.18055,1.95752 -4.0606,3.38948 z"
       id="path5660"
       sodipodi:nodetypes="cscccscscc" /><path
       style="display:inline;opacity:1;fill:#9fc55a;fill-opacity:1;stroke-width:0.264583"
       d="m 211.28617,166.50172 c 0.68889,0.64982 14.69155,10.53034 16.31545,12.2969 2.25363,2.45159 4.72428,5.75541 5.12789,6.70138 0,0 33.80136,0.14817 33.98101,0 0.16697,-0.13768 0.55603,-0.73169 0.26545,-1.26633 -0.35562,-0.6543 -2.71275,-3.36609 -6.86075,-6.75748 -8.74582,-7.15055 -12.71864,-11.82451 -19.30503,-21.35445 -0.80712,-1.16783 -5.15987,-6.70121 -8.60269,-6.64057 -3.78707,0.0667 -10.9088,7.37726 -12.91182,9.33257 -1.65862,1.61911 -7.36851,6.75513 -8.00951,7.68798 z"
       id="path5661"
       sodipodi:nodetypes="cscssssssc" /><path
       style="display:inline;opacity:1;fill:#2a6f3c;fill-opacity:1;stroke-width:0.264583"
       d="m 119.06497,185.5 c 0.0536,-1.47508 6.42637,-4.22841 13.9456,-9.22077 6.6755,-4.43218 9.82534,-7.39954 14.37038,-11.9076 12.30344,-12.20334 21.50615,-29.0454 30.08224,-30.35411 8.69087,0.41413 14.86797,19.17986 24.08175,28.06853 12.6146,12.16949 25.9857,18.08404 26.67563,23.41395 z"
       id="path5662"
       sodipodi:nodetypes="csscscc" /><path
       style="display:inline;opacity:1;fill:#95bfba;fill-opacity:1;stroke-width:0.264583"
       d="M 90.172403,190.15822 297.82895,190.2 c -1.10945,5.6987 -2.77413,11.47617 -4.12588,15.9357 -11.34793,-4.81987 -26.71274,-1.78809 -30.77993,-0.43106 -15.92332,5.31288 -24.69625,2.23341 -33.77651,-0.32901 -12.64105,-3.56726 -23.98077,-2.51609 -31.40537,0.15183 -12.65051,4.54577 -21.7697,2.84498 -35.64537,-0.69014 -17.33573,-4.41664 -22.01272,-3.62702 -33.30629,-0.67495 -11.02855,2.88279 -20.98802,4.17491 -32.815188,0.16361 -2.856553,-3.91285 -5.489929,-8.4906 -5.802009,-14.12598 z"
       id="path5665"
       sodipodi:nodetypes="cccsssssccc" /><path
       style="opacity:1;fill:#95bfba;fill-opacity:1;stroke-width:0.264583"
       d="m 252.63091,233.20519 c 14.05416,-4.51394 21.43273,-3.85797 30.74004,-3.05835 3.30232,-5.6776 6.08114,-12.52419 9.02591,-20.09154 -4.86914,-1.59719 -10.55045,-1.97237 -16.36379,-1.68116 -6.78993,0.50423 -12.97932,2.05939 -19.01886,3.87681 -7.28761,2.19216 -18.44872,0.82179 -25.10818,-1.01871 -19.55642,-6.29969 -26.10344,-1.75822 -36.13419,-0.11985 -17.81016,4.77799 -23.56647,0.7001 -32.77845,-0.83893 -19.30351,-6.43363 -28.56848,-1.63366 -40.44873,0.23969 -9.30442,2.08027 -14.28069,1.04429 -20.24418,0.71909 3.40012,3.05465 7.11559,6.18058 12.15444,8.68899 6.48161,4.37935 8.94535,6.3845 12.52412,9.04853 11.68367,-4.59057 24.38401,-7.20277 41.2722,-1.66563 18.44426,5.70242 24.20426,1.89164 32.41311,-0.0825 0.65981,-2.9494 1.31961,-4.66233 1.97942,-6.68056 16.66724,4.18603 17.06041,9.0874 21.65793,13.80397 1.2491,1.9616 2.24765,1.2506 3.19561,0 5.09795,-6.80196 11.02732,-13.02193 24.11928,-14.22809 1.44788,4.36275 0.99091,8.72549 1.01432,13.08824 z"
       id="path5667"
       sodipodi:nodetypes="ccccccccccccccccccc" /><path
       style="opacity:1;fill:#95bfba;fill-opacity:1;stroke-width:0.264583"
       d="m 241.51756,252.0581 c 6.06955,0.56522 11.63356,0.007 20.80387,6.77392 4.30788,-4.75024 8.91279,-8.95602 18.1319,-23.78912 -4.03299,-1.12555 -18.27763,0.005 -22.12644,1.48512 -1.48961,0.57267 -5.11508,1.76785 -7.21786,1.91951 -1.03849,5.09082 -4.96195,9.20375 -9.59147,13.61057 z"
       id="path5668"
       sodipodi:nodetypes="cccscc" /><path
       style="opacity:1;fill:#95bfba;fill-opacity:1;stroke-width:0.264583"
       d="m 150.34562,261.33165 c 12.03873,-4.46439 25.02448,-3.72017 38.6603,0.59939 -4.03269,-6.22821 -4.16166,-11.03688 -5.49436,-16.28328 6.04796,-1.3278 12.24092,-1.9306 19.08041,0.69928 -1.85428,-3.30057 -2.70747,-7.88824 -2.69723,-13.58605 -20.89773,5.48334 -24.05321,1.22583 -32.36677,-0.19979 -14.03571,-5.2808 -25.36312,-3.27004 -35.96307,0.69928 7.44589,8.91244 13.45994,18.36182 18.78072,28.07117 z"
       id="path5669"
       sodipodi:nodetypes="cccccccc" /><path
       style="opacity:1;fill:#9fc55a;fill-opacity:1;stroke-width:0.264583"
       d="m 218.90683,255.99107 c -19.1779,-10.8647 -14.59073,-27.24488 -13.6134,-30.2976 1.52386,0.67677 23.4935,6.98162 16.07327,29.72265 z"
       id="path5671"
       sodipodi:nodetypes="cccc" /></g><g
     inkscape:label="Capa 1"
     inkscape:groupmode="layer"
     id="layer1"
     transform="translate(33.975003,-6.7240064)"><text
       xml:space="preserve"
       style="font-style:normal;font-variant:normal;font-weight:normal;font-stretch:normal;font-size:68.9322px;font-family:Montserrat;-inkscape-font-specification:Montserrat;letter-spacing:10.5833px;word-spacing:0px;writing-mode:lr-tb;direction:ltr;fill:#10401b;fill-opacity:1;stroke-width:0.359021"
       x="294.46384"
       y="109.80232"
       id="text5"
       transform="scale(0.98377616,1.0164914)"><tspan
         sodipodi:role="line"
         id="tspan5"
         style="font-style:normal;font-variant:normal;font-weight:bold;font-stretch:normal;font-size:68.9322px;font-family:Montserrat;-inkscape-font-specification:'Montserrat Bold';letter-spacing:10.5833px;word-spacing:0px;fill:#10401b;fill-opacity:1;stroke-width:0.359021"
         x="294.46384"
         y="109.80232">CLUB</tspan></text><text
       xml:space="preserve"
       transform="matrix(0.36513021,0,0,0.37693158,-96.176137,124.90881)"
       id="text1-9"
       style="font-size:85.3333px;letter-spacing:10.6979px;word-spacing:0px;writing-mode:lr-tb;direction:ltr;white-space:pre;shape-inside:url(#rect1-6);display:inline;fill:#9fc55a;fill-opacity:1"
       inkscape:label="text2"><tspan
         x="1063.3574"
         y="83.218343"
         id="tspan2"><tspan
           style="font-family:Montserrat;-inkscape-font-specification:Montserrat"
           id="tspan1">AMBIENTAL</tspan></tspan></text><text
       xml:space="preserve"
       style="font-style:normal;font-variant:normal;font-weight:normal;font-stretch:normal;font-size:12.7px;font-family:Montserrat;-inkscape-font-specification:Montserrat;text-align:center;letter-spacing:1.45521px;word-spacing:5.29167px;writing-mode:lr-tb;direction:ltr;text-anchor:middle;fill:#2a6f3c;stroke-width:0.264653"
       x="398.93674"
       y="215.25702"
       id="text2"
       inkscape:label="text3"
       transform="scale(1.0054426,0.99458687)"><tspan
         sodipodi:role="line"
         style="font-style:normal;font-variant:normal;font-weight:normal;font-stretch:normal;font-size:12.7px;font-family:Montserrat;-inkscape-font-specification:Montserrat;letter-spacing:1.45521px;word-spacing:5.29167px;direction:ltr;stroke-width:0.264653"
         x="289.37698"
         y="215.25702"
         id="tspan3">UNIVERSIDAD POLITÉCNICA</tspan><tspan
         sodipodi:role="line"
         style="font-style:normal;font-variant:normal;font-weight:normal;font-stretch:normal;font-size:12.7px;font-family:Montserrat;-inkscape-font-specification:Montserrat;letter-spacing:1.45521px;word-spacing:5.29167px;direction:ltr;stroke-width:0.264653"
         x="289.37698"
         y="231.13202"
         id="tspan4">DE SINALOAt</tspan></text><circle
       style="fill:#10401b;fill-opacity:1;stroke-width:0.0623585"
       id="path5"
       cx="402.17499"
       cy="177.224"
       r="2.5" /><rect
       style="fill:#10401b;fill-opacity:1;stroke-width:0.173924;stroke-dasharray:none;paint-order:normal"
       id="rect7"
       width="100"
       height="2"
       x="292.33121"
       y="175.974"
       rx="0.74999994" /><rect
       style="fill:#10401b;fill-opacity:1;stroke-width:0.173924;stroke-dasharray:none;paint-order:normal"
       id="rect7-2"
       width="100"
       height="2"
       x="412.02499"
       y="175.974"
       rx="0.74999994" /></g></svg>
